# xmcd
#
# Track frame offsets: 
#        150
#        13330
#        27121
#        40893
#        52810
#        66215
#        78312
#        92274
#        104512
#        117947
#        129301
#        142385
#        155357
#        167741
#        181459
#        193397
#        205206
#        218607
#        232095
#        244718
#
# Disc length: 3437 seconds
#
# Revision: 4
# Processed by: cddbd v1.5.2PL0 Copyright (c) Steve Scherf et al.
# Submitted via: ExactAudioCopy v1.0b4
#
DISCID=190d6b14
DTITLE=Various Artist - Blues In History I CD 2
DYEAR=1900
DGENRE=Blues
TTITLE0=Kokomo Arnold - Kokomo Arnold - Grass cutter blues
TTITLE1=Kokomo Arnold - Kokomo Arnold - Money tree man
TTITLE2=Kokomo Arnold - Kokomo Arnold - Delmar avenue
TTITLE3=Kokomo Arnold - Kokomo Arnold - Shake that thing
TTITLE4=Kokomo Arnold - Kokomo Arnold - Try some of that
TTITLE5=Kokomo Arnold - Kokomo Arnold - My gal's been foolin' me
TTITLE6=Kokomo Arnold - Kokomo Arnold - I'm going fishing too
TTITLE7=Kokomo Arnold - Kokomo Arnold - Mister Charlie
TTITLE8=Champion Jack Dupree - Champion Jack Dupree - Cabbage greens n
TTITLE8=o. 1
TTITLE9=Champion Jack Dupree - Champion Jack Dupree - Chaing gang blue
TTITLE9=s
TTITLE10=Champion Jack Dupree - Champion Jack Dupree - Angola blues
TTITLE11=Champion Jack Dupree - Champion Jack Dupree - Dupree shake da
TTITLE11=nce
TTITLE12=Champion Jack Dupree - Champion Jack Dupree - Junker blues
TTITLE13=Lonnie Johnson - Lonnie Johnson - Tomorrow night
TTITLE14=Lonnie Johnson - Lonnie Johnson - Working man's blues
TTITLE15=Lonnie Johnson - Lonnie Johnson - Jelly roll baker
TTITLE16=Lonnie Johnson - Lonnie Johnson - Careless love
TTITLE17=Lonnie Johnson - Lonnie Johnson - Backwater blues
TTITLE18=Lonnie Johnson - Lonnie Johnson - Love is the answer
TTITLE19=Lonnie Johnson - Lonnie Johnson - Keep what you got
EXTD=
EXTT0=
EXTT1=
EXTT2=
EXTT3=
EXTT4=
EXTT5=
EXTT6=
EXTT7=
EXTT8=
EXTT9=
EXTT10=
EXTT11=
EXTT12=
EXTT13=
EXTT14=
EXTT15=
EXTT16=
EXTT17=
EXTT18=
EXTT19=
PLAYORDER=
